<svg width="39" height="39" viewBox="0 0 39 39" fill="none" xmlns="http://www.w3.org/2000/svg">
<path fill-rule="evenodd" clip-rule="evenodd" d="M18.1859 3.51249C12.7347 3.51249 8.3621 7.85433 8.3621 13.1535C8.3621 14.0876 7.60488 14.8448 6.6708 14.8448C5.73671 14.8448 4.97949 14.0876 4.97949 13.1535C4.97949 5.93535 10.9178 0.129883 18.1859 0.129883C25.454 0.129883 31.3923 5.93535 31.3923 13.1535C31.3923 14.0876 30.6351 14.8448 29.701 14.8448C28.7669 14.8448 28.0097 14.0876 28.0097 13.1535C28.0097 7.85433 23.637 3.51249 18.1859 3.51249Z" fill="#000000"/>
<path d="M31.9766 22.1488L32.5245 17.8352C32.7424 16.1195 32.8514 15.2616 32.3632 14.7075C31.8749 14.1533 31.0102 14.1533 29.2807 14.1533H7.09334C5.36383 14.1533 4.49908 14.1533 4.01087 14.7075C3.52266 15.2616 3.63162 16.1195 3.84954 17.8352L4.39744 22.1488C5.08891 27.5927 5.43464 30.3147 7.28788 31.9474C9.14112 33.5802 11.8849 33.5802 17.3726 33.5802H19.0014C24.4891 33.5802 27.2329 33.5802 29.0861 31.9474C30.9394 30.3147 31.2851 27.5927 31.9766 22.1488V22.1488Z" fill="#000000"/>
<path fill-rule="evenodd" clip-rule="evenodd" d="M7.01485 12.9273C7.04113 12.9273 7.06749 12.9273 7.09393 12.9273L29.3604 12.9273C30.157 12.9272 30.879 12.9271 31.4585 13.0084C32.0916 13.0973 32.765 13.3082 33.2838 13.897C33.8026 14.4858 33.9269 15.1805 33.9353 15.8198C33.943 16.4048 33.8519 17.1211 33.7515 17.9114L33.1828 22.3882C32.8463 25.0383 32.5789 27.1436 32.1548 28.7843C31.7175 30.476 31.0783 31.8271 29.8973 32.8676C28.7163 33.9081 27.2954 34.372 25.5621 34.5926C23.8811 34.8065 21.7588 34.8065 19.0875 34.8065H17.2877C14.6164 34.8065 12.4941 34.8065 10.8131 34.5926C9.07977 34.372 7.65891 33.9081 6.47788 32.8676C5.29686 31.8271 4.65766 30.476 4.22041 28.7843C3.79635 27.1436 3.52895 25.0383 3.19238 22.3882L2.63371 17.9898C2.63038 17.9636 2.62706 17.9374 2.62374 17.9114C2.52328 17.1211 2.43222 16.4048 2.43991 15.8198C2.44831 15.1805 2.57264 14.4858 3.0914 13.897C3.61017 13.3082 4.28359 13.0973 4.91674 13.0084C5.4962 12.9271 6.21823 12.9272 7.01485 12.9273ZM4.93184 15.5185C4.93502 15.5166 4.94096 15.5134 4.95052 15.5092C4.98968 15.492 5.07834 15.4622 5.25768 15.437C5.64591 15.3825 6.19232 15.3796 7.09393 15.3796H29.2813C30.1829 15.3796 30.7293 15.3825 31.1175 15.437C31.2969 15.4622 31.3855 15.492 31.4247 15.5092C31.4342 15.5134 31.4402 15.5166 31.4434 15.5185C31.4448 15.5219 31.4472 15.5281 31.4502 15.5382C31.4624 15.5792 31.4807 15.6709 31.4831 15.852C31.4883 16.244 31.4223 16.7864 31.3087 17.6808L30.7608 21.9944C30.7575 22.0201 30.7542 22.0458 30.751 22.0714C30.4063 24.7848 30.1574 26.7123 29.7804 28.1706C29.4087 29.609 28.9484 30.4353 28.2762 31.0275C27.6039 31.6197 26.7263 31.9722 25.2525 32.1598C23.7442 32.3518 21.7781 32.3541 19.002 32.3541H17.3732C14.5971 32.3541 12.631 32.3518 11.1227 32.1598C9.64894 31.9722 8.77128 31.6197 8.09906 31.0275C7.42684 30.4353 6.96655 29.609 6.59477 28.1706C6.21429 26.6985 5.96425 24.7484 5.61445 21.9944L5.06656 17.6808C4.95295 16.7864 4.88693 16.244 4.89209 15.852C4.89446 15.6709 4.91282 15.5792 4.92502 15.5382C4.928 15.5281 4.9304 15.5219 4.93184 15.5185ZM31.4462 15.5202C31.4462 15.5202 31.4461 15.5202 31.4462 15.5202Z" fill="#000000"/>
<path fill-rule="evenodd" clip-rule="evenodd" d="M0 13.5897C0 12.6557 0.757222 11.8984 1.6913 11.8984H34.5916C35.5257 11.8984 36.2829 12.6557 36.2829 13.5897C36.2829 14.5238 35.5257 15.281 34.5916 15.281H1.6913C0.757222 15.281 0 14.5238 0 13.5897Z" fill="#000000"/>
</svg>
